<svg width="22" height="22" viewBox="0 0 22 22" fill="none" xmlns="http://www.w3.org/2000/svg">
<path d="M11.5861 12.9237C12.0038 13.8957 13.0366 13.5132 13.2207 13.0632L14.8105 10.3003L17.6621 8.75682C18.1111 8.59033 18.5198 7.52835 17.5228 7.06936L10.0009 4.49542C9.06235 4.32443 8.67166 5.10291 8.87823 5.7104L11.5861 12.9237ZM15.044 8.19434L13.7821 8.85132C13.5935 8.89632 13.5037 9.04032 13.4094 9.17981L12.6639 10.4893L11.3077 6.88487L15.044 8.19434Z" fill="white"/>
<path d="M21.0704 0H0.934066C0.422126 0 0 0.42299 0 0.935979V15.9161C0 16.4291 0.422126 16.8521 0.934066 16.8521H7.0549V20.128H5.6538C5.14186 20.128 4.71973 20.551 4.71973 21.064C4.71973 21.577 5.14186 22 5.6538 22H16.3057C16.8177 22 17.2398 21.577 17.2398 21.064C17.2398 20.551 16.8177 20.128 16.3057 20.128H14.9496V16.8521H21.021C21.5329 16.8521 21.9551 16.4291 22 15.9611V0.935979C22.0044 0.42299 21.5823 0 21.0704 0ZM13.0814 20.1325H8.87812V16.8521H13.0814V20.1325ZM20.1363 15.0297H1.82323V1.82696H20.1363V15.0297Z" fill="white"/>
</svg>
