<svg width="22" height="22" viewBox="0 0 22 22" fill="none" xmlns="http://www.w3.org/2000/svg">
<path d="M13.7499 22H17.8748C18.2543 22 18.5623 21.692 18.5623 21.3125V11.6875H21.3123C21.5904 11.6875 21.841 11.5201 21.9475 11.2629C22.0541 11.0061 21.9953 10.7105 21.7984 10.5139L11.4859 0.201352C11.2175 -0.0671175 10.7823 -0.0671175 10.5138 0.201352L0.201413 10.5139C0.0047898 10.7105 -0.053991 11.0061 0.0522269 11.2629C0.158789 11.5201 0.40938 11.6875 0.687472 11.6875H3.43745V21.3125C3.43745 21.692 3.74545 22 4.12494 22H8.24991C8.62941 22 8.9374 21.692 8.9374 21.3125V16.5H13.0624V21.3125C13.0624 21.692 13.3704 22 13.7499 22ZM8.24991 15.125C7.87041 15.125 7.56241 15.433 7.56241 15.8125V20.625H4.81244V11C4.81244 10.6205 4.50444 10.3125 4.12494 10.3125H2.34708L10.9999 1.65989L19.6527 10.3125H17.8748C17.4953 10.3125 17.1873 10.6205 17.1873 11V20.625H14.4374V15.8125C14.4374 15.433 14.1294 15.125 13.7499 15.125H8.24991Z" fill="white"/>
<rect x="8.75" y="6.75" width="4.5" height="4.5" rx="2.25" stroke="white" stroke-width="1.5"/>
</svg>
