<svg width="262" height="200" viewBox="0 0 262 200" fill="none" xmlns="http://www.w3.org/2000/svg">
<g clip-path="url(#clip0_2_59)">
<path d="M262 107.386V191.405C261.997 193.684 261.093 195.868 259.484 197.48C257.876 199.091 255.696 199.997 253.422 200H189.097L189.695 199.242L261.244 108.348L262 107.386Z" fill="#F2F2F2"/>
<path d="M102.385 77.7909H28.5224C27.9172 77.7909 27.3368 78.0318 26.9088 78.4606C26.4809 78.8893 26.2404 79.4709 26.2404 80.0773C26.2404 80.6836 26.4809 81.2652 26.9088 81.694C27.3368 82.1227 27.9172 82.3636 28.5224 82.3636H102.385C102.99 82.3636 103.57 82.1227 103.998 81.694C104.426 81.2652 104.667 80.6836 104.667 80.0773C104.667 79.4709 104.426 78.8893 103.998 78.4606C103.57 78.0318 102.99 77.7909 102.385 77.7909Z" fill="#E6E6E6"/>
<path d="M51.4236 64.971H28.5224C27.9172 64.971 27.3368 65.2119 26.9088 65.6407C26.4809 66.0695 26.2404 66.651 26.2404 67.2574C26.2404 67.8638 26.4809 68.4453 26.9088 68.8741C27.3368 69.3029 27.9172 69.5438 28.5224 69.5438H51.4237C52.0289 69.5438 52.6093 69.3029 53.0373 68.8741C53.4652 68.4453 53.7057 67.8638 53.7057 67.2574C53.7057 66.651 53.4652 66.0695 53.0373 65.6407C52.6093 65.2119 52.0289 64.971 51.4237 64.971H51.4236Z" fill="#E6E6E6"/>
<path d="M253.422 0H8.57833C6.30405 0.00274363 4.12371 0.909135 2.51556 2.52036C0.907403 4.13158 0.00273841 6.31608 0 8.5947V191.405C0.00273841 193.684 0.907403 195.868 2.51556 197.48C4.12371 199.091 6.30405 199.997 8.57833 200H253.422C255.696 199.997 257.876 199.091 259.484 197.48C261.093 195.868 261.997 193.684 262 191.405V8.5947C261.997 6.31608 261.093 4.13158 259.484 2.52036C257.876 0.909135 255.696 0.00274363 253.422 0ZM261.244 191.405C261.244 192.434 261.042 193.454 260.648 194.404C260.255 195.355 259.679 196.219 258.953 196.947C258.226 197.675 257.364 198.252 256.415 198.646C255.466 199.04 254.449 199.242 253.422 199.242H8.57833C6.50375 199.242 4.51415 198.417 3.0472 196.947C1.58026 195.477 0.756133 193.484 0.756133 191.405V59.7256C0.756133 44.0863 6.95698 29.0876 17.9946 18.0289C29.0321 6.97026 44.0023 0.757576 59.6118 0.757576H253.422C254.449 0.757576 255.466 0.96029 256.415 1.35414C257.364 1.74799 258.226 2.32527 258.953 3.05302C259.679 3.78076 260.255 4.64472 260.648 5.59556C261.042 6.5464 261.244 7.56551 261.244 8.5947V191.405Z" fill="#E6E6E6"/>
<path d="M238.14 33.0563H23.8787C23.7784 33.0563 23.6822 33.0164 23.6113 32.9453C23.5404 32.8743 23.5006 32.7779 23.5006 32.6775C23.5006 32.577 23.5404 32.4807 23.6113 32.4096C23.6822 32.3386 23.7784 32.2987 23.8787 32.2987H238.14C238.241 32.2987 238.337 32.3386 238.408 32.4096C238.479 32.4807 238.518 32.577 238.518 32.6775C238.518 32.7779 238.479 32.8743 238.408 32.9453C238.337 33.0164 238.241 33.0563 238.14 33.0563Z" fill="#E6E6E6"/>
<path d="M34.5987 21.6849C36.3644 21.6849 37.7958 20.2188 37.7958 18.4102C37.7958 16.6017 36.3644 15.1356 34.5987 15.1356C32.8329 15.1356 31.4015 16.6017 31.4015 18.4102C31.4015 20.2188 32.8329 21.6849 34.5987 21.6849Z" fill="#E6E6E6"/>
<path d="M45.6434 21.6849C47.4092 21.6849 48.8406 20.2188 48.8406 18.4102C48.8406 16.6017 47.4092 15.1356 45.6434 15.1356C43.8777 15.1356 42.4463 16.6017 42.4463 18.4102C42.4463 20.2188 43.8777 21.6849 45.6434 21.6849Z" fill="#E6E6E6"/>
<path d="M56.6882 21.6849C58.4539 21.6849 59.8853 20.2188 59.8853 18.4102C59.8853 16.6017 58.4539 15.1356 56.6882 15.1356C54.9224 15.1356 53.491 16.6017 53.491 18.4102C53.491 20.2188 54.9224 21.6849 56.6882 21.6849Z" fill="#E6E6E6"/>
<path d="M69.2821 20.9984C69.2317 20.9985 69.1819 20.9884 69.1354 20.9689C69.089 20.9493 69.047 20.9206 69.0118 20.8845L66.8546 18.675C66.7854 18.6043 66.7467 18.5092 66.7467 18.4102C66.7467 18.3111 66.7854 18.2161 66.8546 18.1453L69.0118 15.936C69.0464 15.8999 69.0878 15.871 69.1336 15.851C69.1794 15.831 69.2287 15.8203 69.2786 15.8195C69.3286 15.8187 69.3782 15.8278 69.4246 15.8464C69.471 15.8649 69.5133 15.8924 69.549 15.9274C69.5847 15.9624 69.6132 16.0042 69.6327 16.0503C69.6522 16.0963 69.6624 16.1458 69.6627 16.1959C69.663 16.2459 69.6534 16.2956 69.6345 16.3419C69.6155 16.3882 69.5876 16.4303 69.5523 16.4657L67.6537 18.4102L69.5523 20.3548C69.6044 20.4081 69.6395 20.4756 69.6534 20.5488C69.6674 20.6221 69.6594 20.6978 69.6305 20.7665C69.6017 20.8352 69.5532 20.8939 69.4912 20.9351C69.4293 20.9764 69.3565 20.9984 69.2821 20.9984Z" fill="#E6E6E6"/>
<path d="M72.9072 20.9984C72.8327 20.9984 72.76 20.9764 72.698 20.9351C72.636 20.8939 72.5875 20.8352 72.5587 20.7665C72.5298 20.6978 72.5219 20.622 72.5358 20.5488C72.5497 20.4756 72.5849 20.4081 72.6369 20.3548L74.5353 18.4101L72.6369 16.4657C72.5679 16.3937 72.5301 16.2973 72.5317 16.1975C72.5333 16.0977 72.5741 16.0025 72.6454 15.9327C72.7166 15.8629 72.8124 15.8241 72.9121 15.8247C73.0117 15.8253 73.1071 15.8653 73.1774 15.936L75.3345 18.1453C75.4036 18.216 75.4423 18.3111 75.4423 18.4101C75.4423 18.5092 75.4036 18.6042 75.3345 18.675L73.1774 20.8845C73.1422 20.9206 73.1002 20.9493 73.0538 20.9689C73.0074 20.9884 72.9575 20.9985 72.9072 20.9984Z" fill="#E6E6E6"/>
<path d="M219.034 15.5147H215.022C214.914 15.5147 214.806 15.5361 214.705 15.5778C214.605 15.6195 214.514 15.6806 214.437 15.7576C214.36 15.8346 214.299 15.9261 214.257 16.0268C214.216 16.1274 214.194 16.2353 214.194 16.3443V20.367C214.194 20.4759 214.216 20.5838 214.257 20.6845C214.299 20.7851 214.36 20.8766 214.437 20.9536C214.514 21.0307 214.605 21.0918 214.705 21.1335C214.806 21.1751 214.914 21.1966 215.022 21.1965H219.034C219.254 21.1967 219.465 21.1095 219.621 20.954C219.776 20.7985 219.864 20.5874 219.865 20.367V16.3443C219.864 16.1238 219.776 15.9127 219.621 15.7572C219.465 15.6017 219.254 15.5145 219.034 15.5147Z" fill="#E6E6E6"/>
<path d="M209.204 15.5147H205.192C205.084 15.5147 204.976 15.5361 204.876 15.5778C204.775 15.6195 204.684 15.6806 204.607 15.7576C204.53 15.8346 204.469 15.9261 204.427 16.0268C204.386 16.1274 204.365 16.2353 204.365 16.3443V20.367C204.365 20.4759 204.386 20.5838 204.427 20.6845C204.469 20.7851 204.53 20.8766 204.607 20.9536C204.684 21.0307 204.775 21.0918 204.876 21.1335C204.976 21.1751 205.084 21.1966 205.192 21.1965H209.204C209.424 21.1967 209.635 21.1095 209.791 20.954C209.947 20.7985 210.035 20.5874 210.036 20.367V16.3443C210.035 16.1238 209.947 15.9127 209.791 15.7572C209.635 15.6017 209.424 15.5145 209.204 15.5147Z" fill="#E6E6E6"/>
<path d="M228.296 15.7041H224.285C224.176 15.7041 224.068 15.7255 223.968 15.7672C223.868 15.8089 223.776 15.87 223.699 15.947C223.622 16.024 223.561 16.1155 223.52 16.2162C223.478 16.3168 223.457 16.4247 223.457 16.5337V20.5564C223.457 20.6653 223.478 20.7732 223.52 20.8739C223.561 20.9745 223.622 21.066 223.699 21.143C223.776 21.2201 223.868 21.2812 223.968 21.3228C224.068 21.3645 224.176 21.386 224.285 21.3859H228.296C228.516 21.3861 228.727 21.2989 228.883 21.1434C229.039 20.9879 229.127 20.7768 229.128 20.5564V16.5337C229.127 16.3132 229.039 16.1021 228.883 15.9466C228.727 15.7911 228.516 15.7039 228.296 15.7041Z" fill="#E6E6E6"/>
<path d="M147.041 17.2344H114.978C114.71 17.2344 114.453 17.341 114.264 17.5306C114.075 17.7203 113.968 17.9775 113.968 18.2458C113.968 18.514 114.075 18.7712 114.264 18.9609C114.453 19.1506 114.71 19.2571 114.978 19.2571H147.041C147.309 19.2571 147.566 19.1506 147.755 18.9609C147.945 18.7712 148.051 18.514 148.051 18.2458C148.051 17.9775 147.945 17.7203 147.755 17.5306C147.566 17.341 147.309 17.2344 147.041 17.2344Z" fill="#E6E6E6"/>
<path d="M61.0983 155.472L41.9239 154.865C39.2645 154.781 36.2739 154.785 34.3771 156.162C32.2243 157.725 32.5502 160.493 34.3377 162.289C36.1251 164.085 38.9792 165.111 41.7804 165.945C56.6626 170.377 73.133 171.277 89.1253 170.274C105.118 169.271 120.781 166.436 136.367 163.611C137.845 163.343 139.52 162.958 140.123 161.927C140.706 160.93 139.943 159.727 138.758 159.083C137.573 158.439 136.07 158.221 134.621 158.03C108.365 154.573 81.8254 153.814 55.4157 155.766" fill="#6C63FF"/>
<path d="M95.5487 140.697V136.152C92.2565 136.198 80.4751 136.118 77.4015 136.152C77.1728 152.038 75.7708 148.926 88.7617 148.988C89.3587 148.99 89.9306 149.229 90.3523 149.653C90.774 150.076 91.0112 150.65 91.012 151.248V151.316C91.012 151.916 90.7744 152.49 90.3514 152.914C89.9285 153.338 89.3549 153.576 88.7568 153.576H77.4015V158.121H95.5487C95.5742 158.106 95.5304 153.732 95.5488 153.576C96.3161 140.407 94.7979 145.143 83.766 144.615C83.2724 144.59 82.8075 144.376 82.4672 144.016C82.127 143.657 81.9376 143.181 81.9383 142.686V142.629C81.9383 142.116 82.1414 141.625 82.503 141.263C82.8646 140.901 83.355 140.697 83.8663 140.697H95.5487Z" fill="#3F3D56"/>
<path d="M117.855 140.697V136.152C114.562 136.198 102.781 136.118 99.7074 136.152C99.4767 152.176 98.0523 148.871 111.409 148.99C111.917 148.996 112.403 149.201 112.76 149.563C113.117 149.925 113.318 150.413 113.318 150.922C113.318 151.161 113.318 151.405 113.318 151.645C113.318 151.898 113.268 152.149 113.171 152.384C113.074 152.618 112.932 152.831 112.753 153.01C112.574 153.19 112.361 153.332 112.128 153.429C111.894 153.526 111.643 153.576 111.39 153.576H99.7074V158.121H117.855C117.88 158.106 117.836 153.732 117.855 153.576C118.622 140.407 117.104 145.143 106.072 144.615C105.578 144.59 105.113 144.376 104.773 144.016C104.433 143.657 104.244 143.181 104.244 142.685V142.629C104.244 142.116 104.447 141.625 104.809 141.263C105.171 140.901 105.661 140.697 106.172 140.697H117.855Z" fill="#3F3D56"/>
<path d="M72.1086 140.697V136.152H53.9614C53.9486 140.206 53.9707 150.936 53.9614 155.091C50.4042 161.124 70.6123 156.947 72.1096 158.123C72.1086 158.121 72.1086 153.576 72.1086 153.576C58.3012 153.503 57.9542 156.093 58.3984 143.564C58.4251 142.795 58.7488 142.066 59.3012 141.531C59.8537 140.996 60.5918 140.697 61.3601 140.697C65.3518 140.697 72.1086 140.697 72.1086 140.697Z" fill="#3F3D56"/>
<path d="M107.979 101.179L88.8042 100.673C86.1448 100.602 83.1542 100.606 81.2573 101.754C79.1045 103.057 79.4305 105.365 81.2179 106.862C83.0053 108.359 85.8594 109.214 88.6607 109.909C103.543 113.604 120.013 114.354 136.006 113.518C151.998 112.682 167.661 110.319 183.247 107.963C184.725 107.74 186.401 107.419 187.003 106.56C187.587 105.728 186.824 104.726 185.638 104.189C184.453 103.652 182.95 103.471 181.501 103.311C155.201 100.428 128.703 99.797 102.296 101.424" fill="#6C63FF"/>
<path d="M104.622 81.2273C104.313 88.2449 106.888 90.4537 98.0057 89.5598C97.4056 85.3734 100.449 79.5637 93.4694 81.0387C94.8676 84.0756 89.5743 107.116 98.0046 103.006C98.4781 96.084 95.3574 93.0479 104.622 94.1069C105.365 98.3861 101.898 104.683 109.159 103.196C107.761 100.158 113.054 77.1197 104.622 81.2273Z" fill="#3F3D56"/>
<path d="M151.124 81.2273C151.747 81.6125 145.419 88.3196 145.283 88.8692C145.093 88.4002 139.053 81.838 139.782 81.2275C131.378 77.0666 136.616 100.241 135.244 103.198C135.246 103.197 139.782 103.197 139.782 103.197V88.8037C146.159 97.4211 144.975 95.9709 151.125 88.3806L151.124 103.197C159.528 107.359 154.291 84.1823 155.663 81.2262C155.661 81.2273 151.124 81.2273 151.124 81.2273Z" fill="#3F3D56"/>
<path d="M131.087 81.2273H112.94C111.873 87.5992 115.399 85.4622 119.746 85.7726L119.745 103.197H124.282V85.7727C128.608 85.478 132.167 87.5711 131.087 81.2273Z" fill="#3F3D56"/>
<path d="M163.979 98.6515C162.931 92.8909 162.931 86.9879 163.979 81.2273H159.442C159.468 84.1072 159.434 95.7281 159.436 101.042C159.436 101.616 159.663 102.166 160.068 102.572C160.472 102.978 161.021 103.206 161.594 103.206C166.164 103.212 174.89 103.178 177.589 103.197L177.589 98.6515H163.979Z" fill="#3F3D56"/>
<path d="M48.0829 99.4091H29.643C28.7406 99.4091 27.8751 99.7683 27.237 100.408C26.5989 101.047 26.2404 101.914 26.2404 102.818C26.2404 103.722 26.5989 104.589 27.237 105.229C27.8751 105.868 28.7406 106.227 29.643 106.227H48.0829C48.9853 106.227 49.8508 105.868 50.4889 105.229C51.127 104.589 51.4855 103.722 51.4855 102.818C51.4855 101.914 51.127 101.047 50.4889 100.408C49.8508 99.7683 48.9853 99.4091 48.0829 99.4091H48.0829Z" fill="#E6E6E6"/>
<path d="M215.268 196.048L211.525 196.048L209.744 181.582L215.269 181.583L215.268 196.048Z" fill="#FFB6B6"/>
<path d="M215.4 199.961L203.889 199.96V199.815C203.889 198.624 204.361 197.482 205.201 196.641C206.041 195.799 207.181 195.326 208.369 195.326H208.369L210.472 193.728L214.395 195.326L215.4 195.326L215.4 199.961Z" fill="#2F2E41"/>
<path d="M228.5 196.048L224.757 196.048L222.976 181.582L228.501 181.583L228.5 196.048Z" fill="#FFB6B6"/>
<path d="M228.632 199.961L217.121 199.96V199.815C217.121 198.624 217.593 197.482 218.434 196.641C219.274 195.799 220.413 195.326 221.602 195.326H221.602L223.704 193.728L227.627 195.326L228.632 195.326L228.632 199.961Z" fill="#2F2E41"/>
<path d="M205.948 117.227C205.948 117.227 202.346 128.31 203.011 129.769C203.676 131.227 204.81 130.091 203.676 131.227C202.542 132.364 201.551 131.156 202.614 133.085C203.676 135.015 205.285 150.901 205.993 151.67C206.7 152.439 207.673 152.46 206.809 153.207C205.944 153.955 204.81 152.439 205.944 153.955C207.078 155.47 210.088 190.423 210.088 190.423H215.967C215.967 190.423 217.432 188.731 216.603 187.631C215.774 186.53 216.676 186.106 216.603 185.371C216.53 184.636 216.806 183.052 216.857 182.329C216.908 181.606 217.902 164.383 215.515 154.434L219.867 135.49L222.044 158.386C222.044 158.386 219.618 177.591 222.044 183.765C222.044 183.765 220.088 185.397 220.956 186.342C221.823 187.288 222.579 186.53 221.823 187.288C221.067 188.045 222.957 190.697 222.957 190.697L229.384 190.318L233.022 154.434C233.022 154.434 233.635 150.692 233.022 150.05C232.409 149.409 232.409 151.682 232.409 149.409V146.379C232.409 146.379 235.15 127.741 235.103 126.643C235.055 125.545 230.518 117.591 230.518 117.591L205.948 117.227Z" fill="#2F2E41"/>
<path d="M224.957 72.4043L215.572 71.7576L212.764 76.1939L206.001 78.9488V100.803C206.704 102.919 207.068 105.133 207.078 107.364C207.052 111.718 205.936 116.846 206.322 117.97C210.103 128.955 230.896 117.97 230.896 117.97L230.518 106.227L231.032 79.6896L226.783 76.2942L224.957 72.4043Z" fill="#E6E6E6"/>
<path d="M205.567 121.971L204.92 115.062L200.929 114.882L201.872 122.162C201.63 122.52 201.493 122.938 201.475 123.37C201.457 123.802 201.56 124.23 201.772 124.607C201.984 124.983 202.296 125.293 202.674 125.501C203.052 125.71 203.48 125.808 203.911 125.786C204.342 125.764 204.758 125.622 205.112 125.375C205.467 125.129 205.746 124.789 205.918 124.392C206.09 123.996 206.148 123.56 206.086 123.132C206.024 122.704 205.844 122.302 205.567 121.971L205.567 121.971Z" fill="#FFB6B6"/>
<path d="M207.531 78.3661L207.421 78.3848C206.391 78.5596 205.42 78.9831 204.591 79.6186C203.762 80.2541 203.1 81.0824 202.663 82.032C201.52 84.5084 197.808 100.788 199.435 103.243C200.697 105.147 200.391 104.776 199.797 106.212C199.204 107.649 198.249 106.116 199.032 108.396C199.815 110.675 200.675 110.35 199.949 111.231C199.222 112.111 198.476 111.939 199.183 113.414C199.89 114.889 199.775 115.387 199.908 115.942C200.042 116.498 199.926 120.405 199.926 120.405C199.926 120.405 204.189 120.081 206.311 121.097C206.311 121.097 205.127 117.151 205.796 116.519C206.466 115.887 207.269 115.811 206.695 114.891C206.122 113.972 204.822 113.933 206.237 113.474C207.652 113.015 207.196 104.779 207.196 104.779C209.526 98.6647 208.606 88.6087 207.531 78.3661Z" fill="#E6E6E6"/>
<path d="M233.238 122.465L233.536 115.531L237.513 115.149L236.937 122.468C237.197 122.814 237.355 123.224 237.395 123.655C237.434 124.085 237.353 124.518 237.161 124.905C236.968 125.291 236.672 125.617 236.305 125.844C235.938 126.071 235.515 126.191 235.083 126.191C234.652 126.19 234.229 126.069 233.863 125.841C233.496 125.613 233.201 125.287 233.009 124.9C232.817 124.513 232.737 124.08 232.777 123.65C232.818 123.22 232.977 122.809 233.238 122.465Z" fill="#FFB6B6"/>
<path d="M229.08 79.014L229.192 79.0271C230.228 79.1496 231.22 79.5235 232.08 80.1163C232.94 80.7091 233.642 81.5029 234.127 82.4291C235.393 84.8447 239.399 101.205 238.418 103.45C237.504 105.544 237.542 105.029 238.206 106.434C238.871 107.838 239.748 106.259 239.081 108.576C238.414 110.892 237.538 110.61 238.308 111.453C239.078 112.296 239.814 112.086 239.183 113.595C238.551 115.104 238.691 115.596 238.585 116.157C238.48 116.719 238.793 120.615 238.793 120.615C238.793 120.615 234.519 120.507 232.451 121.629C232.451 121.629 233.434 117.628 232.734 117.031C232.034 116.434 231.228 116.398 231.754 115.451C232.28 114.503 233.577 114.399 232.14 114.012C230.704 113.625 230.745 105.376 230.745 105.376L229.08 79.014Z" fill="#E6E6E6"/>
<path d="M220.495 70.3684C224.538 70.3684 227.815 67.0847 227.815 63.0342C227.815 58.9837 224.538 55.7 220.495 55.7C216.452 55.7 213.175 58.9837 213.175 63.0342C213.175 67.0847 216.452 70.3684 220.495 70.3684Z" fill="#FFB6B6"/>
<path d="M225.589 69.3121C226.607 68.5139 226.706 66.9923 227.575 66.0331C229.027 64.4294 229.71 62.704 228.949 60.8038C228.276 59.1231 228.419 57.0571 226.969 55.9753C227.681 55.7171 227.849 55.1809 227.221 55.171C226.797 55.1643 225.218 55.9754 225.978 54.965C226.738 53.9545 225.299 54.3534 225.395 53.9398C225.49 53.5262 226.1 53.2971 226.369 53.625C226.142 53.3925 225.864 53.2151 225.558 53.1063C225.252 52.9975 224.926 52.9602 224.603 52.9972C224.28 53.0341 223.971 53.1444 223.697 53.3197C223.423 53.4949 223.193 53.7304 223.024 54.0082C222.168 52.7227 221.259 51.8381 219.949 52.6539C218.663 53.4551 218.679 54.4456 217.296 54.2076C216.645 54.0957 216.584 55.327 216.139 55.8159C215.934 56.0758 215.667 56.28 215.363 56.41C215.058 56.5401 214.726 56.5918 214.397 56.5604C213.748 56.4376 213.252 55.6279 213.616 55.0759L212.087 58.5697L211.471 57.8126C210.492 58.4517 210.814 60.1195 211.799 60.7486C212.785 61.3777 214.065 61.2432 215.2 60.9644C216.566 60.6287 217.976 60.5115 219.378 60.6172C221.52 60.9204 223.012 63.4864 222.219 65.503C223.042 64.6933 224.565 65.3653 224.991 66.4392C225.417 67.513 225.105 68.7229 224.789 69.8344" fill="#2F2E41"/>
</g>
<defs>
<clipPath id="clip0_2_59">
<rect width="262" height="200" fill="white"/>
</clipPath>
</defs>
</svg>
