<svg width="282" height="200" viewBox="0 0 282 200" fill="none" xmlns="http://www.w3.org/2000/svg">
<g clip-path="url(#clip0_2_192)">
<path d="M50.572 100.901C50.3762 101.184 50.1262 101.417 49.8398 101.582C49.5533 101.748 49.2373 101.842 48.914 101.859C48.5908 101.876 48.2681 101.814 47.9687 101.679C47.6694 101.544 47.4006 101.338 47.1814 101.076L39.9675 104.527L40.6702 100.098L47.4129 97.5002C47.8372 97.1243 48.3722 96.9326 48.9164 96.9615C49.4606 96.9905 49.9763 97.2379 50.3657 97.6571C50.7551 98.0762 50.9912 98.6379 51.0292 99.2357C51.0673 99.8335 50.9046 100.426 50.572 100.901V100.901Z" fill="#A0616A"/>
<path d="M45.7581 102.283L29.0026 110.492L28.9666 110.478L9.86961 102.993C8.44714 102.176 7.36266 100.791 6.83822 99.1226C6.31378 97.4542 6.38906 95.6285 7.04864 94.0192C7.41425 93.13 7.94693 92.3361 8.61162 91.6897C9.27631 91.0433 10.0579 90.5591 10.9051 90.2688C11.7522 89.9786 12.6456 89.889 13.5265 90.0059C14.4074 90.1228 15.2557 90.4436 16.0158 90.9471L30.2275 100.363L44.0085 98.3983L45.7581 102.283Z" fill="#3F3D56"/>
<path d="M52.7779 48.2373C46.4437 32.828 46.6772 13.2958 56.5077 0.29274C59.7965 18.3237 68.7784 34.494 81.8639 45.9427C86.9251 50.3379 92.9704 54.6468 94.3529 61.5743C95.2133 65.8847 93.9938 70.444 91.8857 74.1987C89.7773 77.9535 86.8386 81.0423 83.9333 84.0862L83.6074 85.1279C70.9655 75.5016 59.1121 63.6467 52.7779 48.2373Z" fill="#F0F0F0"/>
<path d="M56.7813 0.480754C54.519 14.1056 56.1996 28.6136 61.6986 41.0965C62.8874 43.7953 64.307 46.4192 66.2076 48.5897C68.0749 50.6898 70.4195 52.2016 72.9978 52.9681C75.3887 53.7358 77.9152 54.2167 80.0948 55.6103C82.3922 57.0792 83.8179 59.5439 84.3733 62.3704C85.0529 65.8287 84.5621 69.3493 83.9733 72.7739C83.3196 76.5761 82.5859 80.5141 83.5331 84.3364C83.6479 84.7995 82.9878 84.9683 82.8732 84.5059C81.2251 77.8558 84.4294 71.297 83.9815 64.611C83.7725 61.4912 82.7074 58.4217 80.2752 56.6141C78.1483 55.0335 75.5434 54.5352 73.1164 53.7808C70.5681 52.9887 68.2795 51.7788 66.332 49.7718C64.3399 47.7188 62.8241 45.1504 61.5777 42.4969C58.7922 36.4566 56.8875 29.9721 55.9335 23.281C54.8062 15.6512 54.8739 7.86549 56.1337 0.260774C56.2119 -0.209872 56.859 0.0131759 56.7813 0.480754Z" fill="white"/>
<path d="M59.7166 37.1428C57.6645 37.8661 55.4454 37.7636 53.4557 36.8536C51.466 35.9436 49.8351 34.2854 48.8544 32.175C48.6573 31.7473 49.2525 31.3903 49.4498 31.8186C50.3597 33.7857 51.879 35.3302 53.7334 36.1734C55.5878 37.0166 57.6552 37.103 59.5624 36.417C59.9771 36.2685 60.1288 36.9951 59.7166 37.1428L59.7166 37.1428Z" fill="white"/>
<path d="M71.7389 52.7546C73.7894 48.4667 74.2952 43.4864 73.1553 38.8066C73.042 38.343 73.7021 38.1741 73.8152 38.6371C74.9932 43.5094 74.4573 48.6911 72.3145 53.148C72.11 53.5726 71.5355 53.177 71.7389 52.7546Z" fill="white"/>
<path d="M55.6774 15.8934C56.5244 15.7955 57.3361 15.4677 58.0395 14.9395C58.7429 14.4114 59.316 13.6993 59.7073 12.8674C59.9068 12.4401 60.4811 12.8362 60.2829 13.2608C59.8467 14.1777 59.2128 14.9632 58.4369 15.5487C57.6609 16.1341 56.7664 16.5016 55.8315 16.6192C55.7442 16.6384 55.6536 16.6203 55.578 16.5686C55.5024 16.517 55.4475 16.4356 55.4245 16.341C55.4045 16.2448 55.4199 16.1438 55.4672 16.06C55.5146 15.9762 55.5901 15.9163 55.6774 15.8934Z" fill="white"/>
<path d="M108.568 0.443672C108.45 0.714378 108.333 0.98508 108.218 1.26132C106.653 4.90977 105.36 8.69201 104.352 12.5707C104.27 12.8693 104.19 13.1732 104.116 13.4737C101.778 22.8469 101.043 32.616 101.947 42.2844C102.31 46.1314 102.939 49.9423 103.828 53.6843C105.056 58.8521 106.761 64.3479 106.376 69.5081C106.342 70.047 106.277 70.583 106.182 71.113L84.7882 85.4845C84.7246 85.4903 84.6638 85.5017 84.6001 85.5077L83.7698 86.1244C83.7117 85.935 83.6551 85.7371 83.597 85.5476C83.5629 85.4379 83.5335 85.3249 83.4994 85.2151C83.4782 85.141 83.4572 85.0666 83.4341 85.001C83.427 84.9763 83.4201 84.9515 83.4159 84.9322C83.3929 84.8666 83.3778 84.803 83.3578 84.7427C83.0389 83.6376 82.7265 82.528 82.4206 81.4141C82.4176 81.4087 82.4176 81.4087 82.4194 81.4001C80.1083 72.9059 78.4217 64.1249 78.0005 55.3415C77.9879 55.0772 77.9721 54.8078 77.9693 54.5369C77.7994 50.5766 77.9242 46.6077 78.3422 42.6697C78.5774 40.5142 78.9117 38.3732 79.3438 36.2549C80.4698 30.7838 82.3712 25.5416 84.9783 20.7204C90.177 11.1102 98.1122 3.43559 107.824 0.648619C108.073 0.577485 108.316 0.509387 108.568 0.443672Z" fill="#F0F0F0"/>
<path d="M108.686 0.774631C99.4208 10.1553 92.8206 22.8521 90.3778 36.4604C89.8496 39.4024 89.5467 42.4375 89.876 45.4291C90.2173 48.3424 91.2617 51.102 92.9007 53.4212C94.3895 55.6174 96.1435 57.6743 97.1209 60.2303C98.1511 62.9244 97.9402 65.8365 96.8364 68.4611C95.4858 71.6724 93.1667 74.1584 90.8219 76.5029C88.2185 79.1059 85.4769 81.7643 84.1408 85.4435C83.9789 85.8893 83.3595 85.587 83.5211 85.1418C85.8457 78.7407 91.9946 75.6256 95.297 69.9906C96.838 67.3612 97.6679 64.2051 96.7154 61.1513C95.8825 58.4809 94.0754 56.3581 92.5505 54.1487C90.9494 51.8288 89.7845 49.3473 89.3282 46.4553C88.8615 43.497 89.0572 40.4425 89.5147 37.4985C90.5972 30.8311 92.6262 24.3923 95.5273 18.4181C98.804 11.5796 103.12 5.40793 108.289 0.170161C108.609 -0.153878 109.004 0.452708 108.686 0.774625V0.774631Z" fill="white"/>
<path d="M90.9603 31.9908C88.9257 31.2095 87.2098 29.6583 86.1191 27.6142C85.0285 25.5701 84.6341 23.1662 85.0064 20.8318C85.0832 20.3597 85.7538 20.4688 85.6769 20.9415C85.3266 23.1146 85.6942 25.3538 86.7133 27.255C87.7325 29.1562 89.3361 30.5941 91.2347 31.3093C91.6471 31.4652 91.3704 32.1459 90.9604 31.9908H90.9603Z" fill="white"/>
<path d="M92.0126 52.4168C95.9971 50.3509 99.1273 46.7093 100.779 42.218C100.942 41.7728 101.562 42.075 101.399 42.5196C99.6719 47.1899 96.4075 50.9723 92.2568 53.112C91.8611 53.3156 91.619 52.6193 92.0126 52.4168Z" fill="white"/>
<path d="M99.3671 12.3497C100.097 12.8322 100.924 13.1078 101.775 13.1518C102.626 13.1959 103.473 13.0069 104.241 12.602C104.634 12.393 104.876 13.0893 104.486 13.2969C103.635 13.7399 102.699 13.9474 101.759 13.901C100.819 13.8546 99.9036 13.5559 99.0928 13.0309C99.0126 12.9885 98.9501 12.9141 98.918 12.8228C98.886 12.7315 98.8867 12.6303 98.9201 12.5396C98.9568 12.4496 99.0244 12.3791 99.1081 12.3436C99.1918 12.308 99.2848 12.3102 99.3671 12.3497Z" fill="white"/>
<path d="M190.597 56.3312C184.262 40.9218 184.496 21.3897 194.327 8.38661C197.616 26.4175 206.598 42.5879 219.684 54.0366C224.745 58.4318 230.791 62.7408 232.173 69.6682C233.034 73.9787 231.814 78.5379 229.706 82.2926C227.597 86.0475 224.659 89.1362 221.753 92.1802L221.427 93.2219C208.785 83.5955 196.931 71.7406 190.597 56.3312Z" fill="#F0F0F0"/>
<path d="M194.6 8.57463C192.338 22.1995 194.018 36.7075 199.517 49.1905C200.706 51.8892 202.126 54.5132 204.026 56.6837C205.894 58.7838 208.238 60.2956 210.816 61.0621C213.207 61.8298 215.734 62.3106 217.913 63.7042C220.211 65.1732 221.637 67.6379 222.192 70.4644C222.872 73.9227 222.381 77.4434 221.792 80.8679C221.138 84.6702 220.405 88.6082 221.352 92.4305C221.467 92.8936 220.807 93.0624 220.692 92.5999C219.044 85.9498 222.248 79.391 221.8 72.705C221.591 69.5852 220.526 66.5157 218.094 64.7081C215.967 63.1275 213.362 62.6292 210.935 61.8748C208.387 61.0827 206.098 59.8728 204.151 57.8658C202.159 55.8128 200.643 53.2444 199.396 50.5909C196.611 44.5505 194.706 38.066 193.752 31.3749C192.625 23.7451 192.693 15.9594 193.952 8.35465C194.031 7.884 194.678 8.10705 194.6 8.57463Z" fill="white"/>
<path d="M197.535 45.2367C195.483 45.96 193.264 45.8575 191.274 44.9475C189.285 44.0375 187.654 42.3793 186.673 40.2689C186.476 39.8411 187.071 39.4842 187.268 39.9125C188.178 41.8795 189.698 43.424 191.552 44.2673C193.406 45.1105 195.474 45.1969 197.381 44.5109C197.796 44.3623 197.947 45.089 197.535 45.2367V45.2367Z" fill="white"/>
<path d="M209.558 60.8485C211.608 56.5606 212.114 51.5802 210.974 46.9005C210.861 46.4369 211.521 46.268 211.634 46.731C212.812 51.6033 212.276 56.785 210.133 61.2419C209.929 61.6665 209.354 61.2708 209.558 60.8485Z" fill="white"/>
<path d="M193.496 23.9872C194.343 23.8893 195.155 23.5616 195.858 23.0334C196.562 22.5052 197.135 21.7932 197.526 20.9612C197.725 20.5339 198.3 20.9301 198.102 21.3546C197.665 22.2716 197.032 23.0571 196.256 23.6425C195.48 24.228 194.585 24.5955 193.65 24.713C193.563 24.7322 193.472 24.7142 193.397 24.6625C193.321 24.6108 193.266 24.5294 193.243 24.4349C193.223 24.3387 193.239 24.2377 193.286 24.1538C193.333 24.07 193.409 24.0101 193.496 23.9872Z" fill="white"/>
<path d="M246.387 8.53754C246.269 8.80825 246.151 9.07896 246.036 9.3552C244.471 13.0037 243.178 16.786 242.17 20.6647C242.088 20.9632 242.009 21.2671 241.935 21.5676C239.597 30.9409 238.861 40.7101 239.766 50.3786C240.129 54.2256 240.758 58.0366 241.647 61.7786C242.875 66.9465 244.58 72.4423 244.195 77.6026C244.16 78.1414 244.095 78.6774 244 79.2075L222.607 93.5791C222.543 93.5849 222.482 93.5962 222.419 93.6022L221.588 94.219C221.53 94.0295 221.474 93.8316 221.416 93.6422C221.382 93.5324 221.352 93.4194 221.318 93.3097C221.297 93.2355 221.276 93.1611 221.253 93.0955C221.246 93.0709 221.239 93.046 221.235 93.0267C221.212 92.9611 221.196 92.8975 221.176 92.8373C220.858 91.7321 220.545 90.6225 220.239 89.5086C220.236 89.5032 220.236 89.5032 220.238 89.4946C217.927 81.0004 216.24 72.2193 215.819 63.4358C215.807 63.1715 215.791 62.9021 215.788 62.6312C215.618 58.6709 215.743 54.7019 216.161 50.7639C216.396 48.6084 216.73 46.4674 217.162 44.349C218.288 38.8779 220.19 33.6356 222.797 28.8144C227.996 19.2042 235.931 11.5295 245.643 8.74249C245.891 8.67136 246.135 8.60326 246.387 8.53754Z" fill="#F0F0F0"/>
<path d="M246.504 8.86849C237.239 18.2491 230.639 30.9457 228.196 44.5538C227.668 47.4959 227.365 50.5309 227.695 53.5224C228.036 56.4357 229.08 59.1953 230.719 61.5145C232.208 63.7107 233.962 65.7676 234.94 68.3235C235.97 71.0176 235.759 73.9297 234.655 76.5542C233.305 79.7655 230.985 82.2515 228.641 84.5959C226.037 87.1989 223.296 89.8573 221.959 93.5364C221.798 93.9822 221.178 93.6799 221.34 93.2348C223.664 86.8337 229.813 83.7187 233.116 78.0837C234.657 75.4544 235.487 72.2983 234.534 69.2445C233.701 66.5741 231.894 64.4514 230.369 62.242C228.768 59.9221 227.603 57.4407 227.147 54.5487C226.68 51.5904 226.876 48.5359 227.333 45.5919C228.416 38.9246 230.445 32.4859 233.346 26.5118C236.623 19.6733 240.939 13.5017 246.108 8.26402C246.428 7.93999 246.822 8.54657 246.504 8.86848V8.86849Z" fill="white"/>
<path d="M228.777 40.0847C226.743 39.3034 225.028 37.7522 223.937 35.7081C222.847 33.6639 222.453 31.26 222.825 28.9257C222.902 28.4536 223.572 28.5627 223.495 29.0354C223.145 31.2084 223.513 33.4476 224.531 35.3488C225.55 37.25 227.153 38.688 229.051 39.4032C229.463 39.5591 229.187 40.2398 228.777 40.0847Z" fill="white"/>
<path d="M229.83 60.5106C233.815 58.4448 236.946 54.8032 238.598 50.3118C238.761 49.8667 239.38 50.1689 239.217 50.6135C237.49 55.2838 234.225 59.0662 230.074 61.2059C229.678 61.4095 229.436 60.7132 229.83 60.5106Z" fill="white"/>
<path d="M237.186 20.4436C237.916 20.926 238.743 21.2017 239.594 21.2457C240.445 21.2897 241.292 21.1008 242.06 20.6959C242.453 20.4869 242.695 21.1832 242.304 21.3908C241.454 21.8338 240.518 22.0412 239.578 21.9949C238.638 21.9485 237.722 21.6498 236.912 21.1248C236.831 21.0824 236.769 21.0079 236.737 20.9167C236.705 20.8254 236.705 20.7241 236.739 20.6334C236.776 20.5434 236.843 20.473 236.927 20.4375C237.01 20.4019 237.104 20.4041 237.186 20.4436Z" fill="white"/>
<path d="M62.4886 157.587H225.455V53.8212C225.455 53.0437 225.173 52.2983 224.674 51.7486C224.174 51.1988 223.496 50.8896 222.789 50.8887H65.155C64.4481 50.8896 63.7704 51.1988 63.2705 51.7486C62.7706 52.2983 62.4894 53.0437 62.4886 53.8212V157.587Z" fill="#CACACA"/>
<path d="M220.42 54.9445H67.5237V150.412H220.42V54.9445Z" fill="white"/>
<path d="M62.3468 154.78V167.585C62.3468 168.115 62.4419 168.641 62.6266 169.132C62.8113 169.622 63.082 170.068 63.4233 170.443C63.7646 170.818 64.1697 171.116 64.6157 171.319C65.0616 171.522 65.5395 171.627 66.0222 171.627H126.172V196.898H125.373C125.311 196.898 125.249 196.911 125.191 196.938C125.133 196.964 125.08 197.003 125.036 197.051C124.991 197.1 124.956 197.158 124.932 197.222C124.908 197.286 124.896 197.354 124.896 197.423V199.18C124.896 199.249 124.908 199.318 124.932 199.381C124.956 199.445 124.991 199.503 125.036 199.552C125.08 199.601 125.133 199.639 125.191 199.666C125.249 199.692 125.311 199.706 125.373 199.706H162.714C162.777 199.706 162.839 199.692 162.897 199.666C162.955 199.639 163.007 199.601 163.052 199.552C163.096 199.503 163.131 199.445 163.155 199.381C163.179 199.318 163.191 199.249 163.191 199.18V197.423C163.191 197.354 163.179 197.286 163.155 197.222C163.131 197.158 163.096 197.1 163.052 197.051C163.007 197.003 162.955 196.964 162.897 196.938C162.839 196.911 162.777 196.898 162.714 196.898H161.915V171.627H222.065C222.548 171.627 223.026 171.522 223.472 171.319C223.918 171.116 224.323 170.818 224.664 170.443C225.005 170.068 225.276 169.622 225.461 169.132C225.645 168.641 225.741 168.116 225.741 167.585V154.78L62.3468 154.78Z" fill="#3F3D56"/>
<path d="M115.067 102.157H77.8074C77.5477 102.156 77.2988 102.043 77.1152 101.841C76.9316 101.639 76.8283 101.365 76.828 101.08V84.4519C76.8283 84.1664 76.9316 83.8926 77.1152 83.6907C77.2988 83.4887 77.5477 83.3751 77.8074 83.3748H115.067C115.327 83.3751 115.576 83.4887 115.76 83.6906C115.943 83.8926 116.046 84.1664 116.047 84.4519V101.08C116.046 101.365 115.943 101.639 115.76 101.841C115.576 102.043 115.327 102.156 115.067 102.157Z" fill="#6C63FF"/>
<path d="M111.52 110.133H81.3552C81.0435 110.133 80.7446 109.997 80.5242 109.755C80.3038 109.512 80.18 109.183 80.18 108.841C80.18 108.498 80.3038 108.169 80.5242 107.927C80.7446 107.684 81.0435 107.548 81.3552 107.548H111.52C113.035 107.525 113.05 110.157 111.52 110.133Z" fill="#E4E4E4"/>
<path d="M111.519 116.057H81.3545C81.0428 116.057 80.7438 115.921 80.5234 115.679C80.303 115.436 80.1792 115.108 80.1792 114.765C80.1792 114.422 80.303 114.093 80.5234 113.851C80.7438 113.608 81.0428 113.472 81.3545 113.472H111.519C113.035 113.449 113.05 116.081 111.519 116.057Z" fill="#E4E4E4"/>
<path d="M111.52 121.981H81.3552C81.0435 121.981 80.7446 121.845 80.5242 121.603C80.3038 121.361 80.18 121.032 80.18 120.689C80.18 120.346 80.3038 120.017 80.5242 119.775C80.7446 119.533 81.0435 119.396 81.3552 119.396H111.52C113.035 119.373 113.05 122.005 111.52 121.981Z" fill="#E4E4E4"/>
<path d="M162.602 102.157H125.342C125.083 102.156 124.834 102.043 124.65 101.841C124.467 101.639 124.363 101.365 124.363 101.08V84.4519C124.363 84.1664 124.467 83.8926 124.65 83.6906C124.834 83.4887 125.083 83.3751 125.342 83.3748H162.602C162.862 83.3751 163.111 83.4887 163.295 83.6906C163.478 83.8926 163.581 84.1664 163.582 84.4519V101.08C163.581 101.365 163.478 101.639 163.295 101.841C163.111 102.043 162.862 102.156 162.602 102.157Z" fill="#6C63FF"/>
<path d="M159.055 110.133H128.89C128.579 110.133 128.28 109.997 128.059 109.755C127.839 109.512 127.715 109.183 127.715 108.841C127.715 108.498 127.839 108.169 128.059 107.927C128.28 107.684 128.579 107.548 128.89 107.548H159.055C160.57 107.525 160.585 110.157 159.055 110.133Z" fill="#E4E4E4"/>
<path d="M159.055 116.057H128.89C128.579 116.057 128.28 115.921 128.059 115.679C127.839 115.436 127.715 115.108 127.715 114.765C127.715 114.422 127.839 114.093 128.059 113.851C128.28 113.608 128.579 113.472 128.89 113.472H159.055C160.57 113.449 160.585 116.081 159.055 116.057Z" fill="#E4E4E4"/>
<path d="M159.055 121.981H128.89C128.579 121.981 128.28 121.845 128.059 121.603C127.839 121.361 127.715 121.032 127.715 120.689C127.715 120.346 127.839 120.017 128.059 119.775C128.28 119.533 128.579 119.396 128.89 119.396H159.055C160.57 119.373 160.585 122.005 159.055 121.981Z" fill="#E4E4E4"/>
<path d="M210.139 102.157H172.877C172.618 102.156 172.369 102.043 172.185 101.841C172.002 101.639 171.898 101.365 171.898 101.08V84.4519C171.898 84.1664 172.002 83.8926 172.185 83.6906C172.369 83.4887 172.618 83.3751 172.877 83.3748H210.139C210.399 83.3751 210.647 83.4887 210.831 83.6906C211.015 83.8926 211.118 84.1664 211.118 84.4519V101.08C211.118 101.365 211.015 101.639 210.831 101.841C210.647 102.043 210.399 102.156 210.139 102.157Z" fill="#6C63FF"/>
<path d="M206.589 110.133H176.425C176.114 110.133 175.815 109.997 175.594 109.755C175.374 109.512 175.25 109.183 175.25 108.841C175.25 108.498 175.374 108.169 175.594 107.927C175.815 107.684 176.114 107.548 176.425 107.548H206.589C208.105 107.525 208.12 110.157 206.589 110.133Z" fill="#E4E4E4"/>
<path d="M206.589 116.057H176.424C176.112 116.057 175.814 115.92 175.594 115.678C175.374 115.436 175.25 115.107 175.25 114.765C175.25 114.422 175.374 114.094 175.594 113.852C175.814 113.609 176.112 113.473 176.424 113.472H206.589C208.105 113.449 208.12 116.081 206.589 116.057Z" fill="#E4E4E4"/>
<path d="M206.589 121.981H176.425C176.114 121.981 175.815 121.845 175.594 121.603C175.374 121.361 175.25 121.032 175.25 120.689C175.25 120.346 175.374 120.017 175.594 119.775C175.815 119.533 176.114 119.396 176.425 119.396H206.589C208.105 119.373 208.12 122.005 206.589 121.981Z" fill="#E4E4E4"/>
<path d="M263.806 83.5994L263.908 104.441L264.324 104.415L264.718 112.131L263.947 112.178L263.969 116.813L264.586 116.8L264.711 124.522L264.008 124.537L264.343 192.546C264.35 194.327 263.715 196.038 262.576 197.304C261.437 198.57 259.888 199.288 258.269 199.299L189.963 199.706C188.343 199.714 186.787 199.016 185.636 197.763C184.485 196.511 183.833 194.807 183.822 193.026L183.286 84.0798C183.279 82.299 183.914 80.5878 185.053 79.3217C186.191 78.0556 187.74 77.3381 189.359 77.3267L257.666 76.9196C259.285 76.9122 260.841 77.6113 261.992 78.8635C263.143 80.1157 263.795 81.8188 263.806 83.5994Z" fill="#3F3D56"/>
<path d="M258.368 195.014L189.821 195.423C189.322 195.425 188.842 195.209 188.488 194.823C188.133 194.437 187.932 193.912 187.928 193.364L187.388 83.6932C187.385 83.1443 187.581 82.6169 187.932 82.2267C188.283 81.8365 188.761 81.6153 189.26 81.6117L257.807 81.2029C258.306 81.2005 258.786 81.416 259.141 81.802C259.495 82.188 259.696 82.7131 259.7 83.262L260.24 192.932C260.243 193.481 260.047 194.009 259.696 194.399C259.345 194.789 258.867 195.01 258.368 195.014Z" fill="white"/>
<path d="M223.264 79.752C223.55 79.752 223.782 79.4962 223.782 79.1806C223.782 78.865 223.55 78.6092 223.264 78.6092C222.977 78.6092 222.745 78.865 222.745 79.1806C222.745 79.4962 222.977 79.752 223.264 79.752Z" fill="white"/>
<path d="M243.651 112.071H203.978C203.701 112.071 203.436 111.95 203.241 111.735C203.045 111.52 202.935 111.229 202.935 110.925V93.22C202.935 92.916 203.045 92.6245 203.241 92.4095C203.436 92.1945 203.701 92.0735 203.978 92.0732H243.651C243.927 92.0735 244.192 92.1945 244.388 92.4095C244.583 92.6245 244.693 92.916 244.693 93.22V110.925C244.693 111.229 244.583 111.52 244.388 111.735C244.192 111.95 243.927 112.071 243.651 112.071Z" fill="#6C63FF"/>
<path d="M239.873 120.564H207.757C207.425 120.564 207.107 120.419 206.872 120.161C206.637 119.903 206.505 119.553 206.505 119.188C206.505 118.823 206.637 118.473 206.872 118.215C207.107 117.957 207.425 117.812 207.757 117.812H239.873C241.487 117.787 241.503 120.589 239.873 120.564Z" fill="#E4E4E4"/>
<path d="M239.873 126.872H207.755C207.424 126.872 207.106 126.726 206.872 126.468C206.637 126.21 206.506 125.861 206.506 125.496C206.506 125.131 206.637 124.782 206.872 124.524C207.106 124.266 207.424 124.12 207.755 124.12H239.873C241.487 124.095 241.503 126.897 239.873 126.872Z" fill="#E4E4E4"/>
<path d="M239.873 133.18H207.757C207.425 133.18 207.107 133.035 206.872 132.777C206.637 132.519 206.505 132.169 206.505 131.804C206.505 131.439 206.637 131.089 206.872 130.831C207.107 130.573 207.425 130.428 207.757 130.428H239.873C241.487 130.403 241.503 133.205 239.873 133.18Z" fill="#E4E4E4"/>
<path d="M243.651 163.444H203.978C203.701 163.443 203.436 163.322 203.241 163.107C203.045 162.892 202.935 162.601 202.935 162.297V144.592C202.935 144.288 203.045 143.997 203.241 143.782C203.436 143.567 203.701 143.446 203.978 143.445H243.651C243.927 143.446 244.192 143.567 244.388 143.782C244.583 143.997 244.693 144.288 244.693 144.592V162.297C244.693 162.601 244.583 162.892 244.388 163.107C244.192 163.322 243.927 163.443 243.651 163.444Z" fill="#6C63FF"/>
<path d="M239.873 171.937H207.757C207.425 171.937 207.107 171.792 206.872 171.534C206.637 171.275 206.505 170.925 206.505 170.56C206.505 170.195 206.637 169.845 206.872 169.587C207.107 169.329 207.425 169.184 207.757 169.184H239.873C241.487 169.159 241.503 171.962 239.873 171.937Z" fill="#E4E4E4"/>
<path d="M239.873 178.244H207.755C207.424 178.244 207.106 178.098 206.872 177.84C206.637 177.582 206.506 177.233 206.506 176.868C206.506 176.503 206.637 176.154 206.872 175.896C207.106 175.638 207.424 175.492 207.755 175.492H239.873C241.487 175.467 241.503 178.269 239.873 178.244Z" fill="#E4E4E4"/>
<path d="M239.873 184.552H207.757C207.425 184.552 207.107 184.407 206.872 184.149C206.637 183.891 206.505 183.541 206.505 183.176C206.505 182.811 206.637 182.461 206.872 182.203C207.107 181.945 207.425 181.8 207.757 181.8H239.873C241.487 181.775 241.503 184.577 239.873 184.552Z" fill="#E4E4E4"/>
<path d="M77.3785 194.354L77.2465 134.292L77.7443 134.291L77.7203 123.244L77.2225 123.245L77.1817 104.805C77.1802 104.116 77.0554 103.434 76.8144 102.798C76.5733 102.163 76.2208 101.586 75.7769 101.1C75.3331 100.614 74.8065 100.229 74.2274 99.9669C73.6482 99.7048 73.0279 99.5708 72.4016 99.5725L36.9147 99.6667C36.2885 99.6683 35.6687 99.8056 35.0907 100.071C34.5127 100.336 33.9878 100.723 33.5461 101.212C33.1043 101.7 32.7543 102.279 32.516 102.916C32.2777 103.553 32.1559 104.235 32.1574 104.924L32.1856 117.782L31.3927 117.804L31.5678 125.527L32.2026 125.51L32.2064 127.214L31.5308 127.233L31.706 134.956L32.2233 134.942L32.3541 194.473C32.3545 195.162 32.4785 195.845 32.7191 196.481C32.9598 197.117 33.3122 197.695 33.7564 198.181C34.2005 198.667 34.7275 199.052 35.3072 199.314C35.8868 199.575 36.5078 199.708 37.1343 199.706L72.6211 199.611C73.8854 199.606 75.0963 199.05 75.9882 198.064C76.88 197.079 77.38 195.744 77.3785 194.354Z" fill="#3F3D56"/>
<path d="M36.0491 197.302C35.6066 197.127 35.2237 196.807 34.9525 196.384C34.6814 195.961 34.5351 195.457 34.5336 194.94L34.3349 104.446C34.3335 103.779 34.5728 103.139 35.0003 102.667C35.4278 102.195 36.0084 101.928 36.6143 101.927L44.1647 101.906L44.0712 102.16C43.909 102.6 43.8478 103.078 43.8929 103.55C43.938 104.023 44.0881 104.476 44.3298 104.869C44.5716 105.263 44.8977 105.585 45.2794 105.807C45.6611 106.03 46.0866 106.146 46.5185 106.144L63.275 106.1C63.6921 106.06 64.0948 105.913 64.4505 105.67C64.8062 105.427 65.1049 105.095 65.3224 104.702C65.5368 104.315 65.6651 103.878 65.6967 103.426C65.7283 102.975 65.6624 102.521 65.5043 102.103L65.4098 101.85L73.2089 101.829C73.8147 101.828 74.396 102.092 74.8254 102.562C75.2548 103.032 75.4972 103.67 75.4994 104.336L75.6892 190.676C75.6911 192.444 75.0554 194.14 73.9214 195.393C72.7875 196.647 71.248 197.354 69.6405 197.36L36.8241 197.447C36.5601 197.448 36.2979 197.399 36.0491 197.302Z" fill="white"/>
<path d="M48.9766 104.051C49.2635 104.051 49.496 103.796 49.496 103.48C49.496 103.165 49.2635 102.909 48.9766 102.909C48.6897 102.909 48.4572 103.165 48.4572 103.48C48.4572 103.796 48.6897 104.051 48.9766 104.051Z" fill="white"/>
<path d="M69.0583 131.863H42.0974C41.9096 131.863 41.7294 131.781 41.5966 131.635C41.4637 131.489 41.389 131.29 41.3888 131.084V119.052C41.389 118.846 41.4637 118.647 41.5966 118.501C41.7294 118.355 41.9096 118.273 42.0974 118.273H69.0583C69.2462 118.273 69.4263 118.355 69.5592 118.501C69.692 118.647 69.7667 118.846 69.7669 119.052V131.084C69.7667 131.29 69.692 131.489 69.5592 131.635C69.4263 131.781 69.2462 131.863 69.0583 131.863Z" fill="#6C63FF"/>
<path d="M66.4911 137.634H44.6646C44.5528 137.634 44.4421 137.61 44.3387 137.563C44.2353 137.516 44.1414 137.448 44.0622 137.361C43.9831 137.274 43.9203 137.171 43.8775 137.057C43.8346 136.944 43.8126 136.822 43.8126 136.699C43.8126 136.576 43.8346 136.454 43.8775 136.341C43.9203 136.227 43.9831 136.124 44.0622 136.037C44.1414 135.951 44.2353 135.882 44.3387 135.835C44.4421 135.788 44.5528 135.764 44.6646 135.764H66.4911C67.5878 135.747 67.5987 137.651 66.4911 137.634Z" fill="#E4E4E4"/>
<path d="M66.4911 141.921H44.6646C44.4391 141.921 44.2228 141.822 44.0633 141.647C43.9038 141.471 43.8142 141.234 43.8142 140.986C43.8142 140.738 43.9038 140.5 44.0633 140.325C44.2228 140.149 44.4391 140.051 44.6646 140.051H66.4911C67.5878 140.034 67.5987 141.937 66.4911 141.921Z" fill="#E4E4E4"/>
<path d="M66.4911 146.207H44.6646C44.5528 146.207 44.4421 146.183 44.3387 146.137C44.2353 146.09 44.1414 146.021 44.0622 145.934C43.9831 145.847 43.9203 145.744 43.8775 145.63C43.8346 145.517 43.8126 145.395 43.8126 145.272C43.8126 145.149 43.8346 145.028 43.8775 144.914C43.9203 144.801 43.9831 144.698 44.0622 144.611C44.1414 144.524 44.2353 144.455 44.3387 144.408C44.4421 144.361 44.5528 144.337 44.6646 144.338H66.4911C67.5878 144.321 67.5987 146.224 66.4911 146.207Z" fill="#E4E4E4"/>
<path d="M69.0583 167.918H42.0974C41.9096 167.917 41.7294 167.835 41.5966 167.689C41.4637 167.543 41.389 167.345 41.3888 167.138V155.107C41.389 154.9 41.4637 154.702 41.5966 154.556C41.7294 154.41 41.9096 154.328 42.0974 154.327H69.0583C69.2462 154.328 69.4263 154.41 69.5592 154.556C69.692 154.702 69.7667 154.9 69.7669 155.107V167.138C69.7667 167.345 69.692 167.543 69.5592 167.689C69.4263 167.835 69.2462 167.917 69.0583 167.918Z" fill="#6C63FF"/>
<path d="M66.4911 173.688H44.6646C44.5528 173.689 44.4421 173.665 44.3387 173.618C44.2353 173.571 44.1414 173.502 44.0622 173.415C43.9831 173.328 43.9203 173.225 43.8775 173.112C43.8346 172.998 43.8126 172.876 43.8126 172.754C43.8126 172.631 43.8346 172.509 43.8775 172.395C43.9203 172.282 43.9831 172.179 44.0622 172.092C44.1414 172.005 44.2353 171.936 44.3387 171.889C44.4421 171.842 44.5528 171.818 44.6646 171.819H66.4911C67.5878 171.802 67.5987 173.705 66.4911 173.688Z" fill="#E4E4E4"/>
<path d="M66.4911 177.975H44.6646C44.4391 177.975 44.2228 177.877 44.0633 177.701C43.9038 177.526 43.8142 177.288 43.8142 177.04C43.8142 176.792 43.9038 176.555 44.0633 176.379C44.2228 176.204 44.4391 176.105 44.6646 176.105H66.4911C67.5878 176.089 67.5987 177.992 66.4911 177.975Z" fill="#E4E4E4"/>
<path d="M66.4911 182.262H44.6646C44.5528 182.262 44.4421 182.238 44.3387 182.191C44.2353 182.144 44.1414 182.075 44.0622 181.989C43.9831 181.902 43.9203 181.799 43.8775 181.685C43.8346 181.571 43.8126 181.45 43.8126 181.327C43.8126 181.204 43.8346 181.082 43.8775 180.969C43.9203 180.855 43.9831 180.752 44.0622 180.665C44.1414 180.578 44.2353 180.509 44.3387 180.463C44.4421 180.416 44.5528 180.392 44.6646 180.392H66.4911C67.5878 180.375 67.5987 182.279 66.4911 182.262Z" fill="#E4E4E4"/>
<path d="M8.78962 196.419L11.7193 196.418L13.1129 183.991H8.78896L8.78962 196.419Z" fill="#A0616A"/>
<path d="M8.04233 195.367L8.8669 195.367L12.0862 193.927L13.8116 195.367H13.8119C14.787 195.367 15.7221 195.793 16.4116 196.551C17.1011 197.309 17.4885 198.338 17.4885 199.41V199.542L8.04249 199.542L8.04233 195.367Z" fill="#2F2E41"/>
<path d="M20.1423 194.388L22.9997 195.098L26.8482 183.313L22.6307 182.266L20.1423 194.388Z" fill="#A0616A"/>
<path d="M19.6239 193.181L20.4282 193.381L23.8568 192.756L25.2514 194.579L25.2517 194.579C26.2028 194.815 27.0296 195.457 27.5503 196.364C28.0709 197.271 28.2428 198.368 28.0281 199.414L28.0018 199.542L18.7879 197.254L19.6239 193.181Z" fill="#2F2E41"/>
<path d="M5.07926 120.443C3.70575 124.999 3.85096 129.944 5.40941 135.252L6.07561 165.136C6.07561 165.136 5.08302 184.734 8.28593 191.63H12.931L15.2309 163.347L15.5197 144.363L25.4784 160.379L19.1354 191.167L24.8524 191.729L35.1454 158.317L22.4459 125.9L5.07926 120.443Z" fill="#2F2E41"/>
<path d="M23.2743 126.857L6.38356 123.886C5.94057 123.73 5.53352 123.47 5.19037 123.125C4.84722 122.779 4.57609 122.357 4.39559 121.885C4.21509 121.414 4.1295 120.905 4.1447 120.393C4.15989 119.882 4.27551 119.38 4.48361 118.923L5.24959 117.238L4.95205 99.534C4.91618 97.2311 5.43238 94.9585 6.4487 92.9447C7.46502 90.931 8.94562 89.2471 10.7415 88.0625L12.3887 86.9793L13.2211 84.6544L20.8968 84.8603L20.9192 87.9095L23.6681 92.7304L23.668 92.7504L23.4955 118.99L22.7379 121.698L23.8834 124.847L23.2743 126.857Z" fill="#3F3D56"/>
<path d="M17.7618 81.7635C21.6136 81.7635 24.736 78.3293 24.736 74.0931C24.736 69.8569 21.6136 66.4227 17.7618 66.4227C13.9101 66.4227 10.7877 69.8569 10.7877 74.0931C10.7877 78.3293 13.9101 81.7635 17.7618 81.7635Z" fill="#FFB6B6"/>
<path d="M10.4996 75.7652C10.2916 74.8014 10.3871 73.4452 10.5046 72.4747C10.6552 71.1951 11.0485 69.9645 11.6591 68.8628C12.2698 67.7611 13.084 66.8127 14.0492 66.0792C14.4193 65.7701 14.859 65.5779 15.3211 65.5233C15.552 65.5019 15.7832 65.5614 15.9815 65.6933C16.1798 65.8253 16.3351 66.0228 16.425 66.2577C16.5414 65.9384 16.7159 65.6487 16.938 65.4065C17.1601 65.1643 17.4249 64.9748 17.7162 64.8495C18.3013 64.603 18.9306 64.5097 19.5541 64.5772C20.7628 64.6868 21.9219 65.1542 22.9085 65.9298C23.8951 66.7055 24.6724 67.7604 25.1579 68.9827C25.3441 69.4694 25.8644 67.6717 26.1005 68.1316C26.3173 68.6096 26.6957 68.9752 27.1546 69.1503C27.6171 69.2922 27.8049 71.3878 27.9869 70.8991C28.1281 71.2603 28.184 71.6548 28.1492 72.0461C28.1144 72.4373 27.9902 72.8125 27.7881 73.1367C27.5859 73.461 27.3125 73.7236 26.9932 73.9003C26.6739 74.077 26.3192 74.162 25.962 74.1473C25.4951 74.0809 25.0323 73.9835 24.5761 73.8555C23.7385 73.7394 22.8912 73.9647 22.1942 74.4887C21.4972 75.0126 20.9988 75.7992 20.793 76.6997C20.6657 76.176 20.4624 75.6784 20.1908 75.2261C20.0529 75.0011 19.8682 74.8155 19.652 74.6849C19.4358 74.5542 19.1944 74.4823 18.9478 74.4749C18.7121 74.5047 18.4844 74.5871 18.2787 74.7171C18.073 74.8472 17.8936 75.0221 17.7516 75.2312C17.4446 75.6277 17.214 76.0903 16.9047 76.4846C15.9972 77.6418 14.7697 80.3403 13.4763 80.1435C12.4556 79.9882 10.7836 77.0812 10.4996 75.7652Z" fill="#2F2E41"/>
<path d="M43.7608 121.258C43.464 121.4 43.1425 121.469 42.819 121.459C42.4955 121.45 42.1778 121.362 41.8884 121.203C41.5989 121.044 41.3448 120.817 41.1438 120.538C40.9428 120.259 40.7998 119.935 40.725 119.588L32.8982 118.719L35.4803 115.233L42.5169 116.593C43.0542 116.494 43.606 116.614 44.0679 116.932C44.5298 117.25 44.8696 117.743 45.0229 118.318C45.1762 118.893 45.1324 119.51 44.8998 120.052C44.6672 120.594 44.2619 121.023 43.7608 121.258Z" fill="#A0616A"/>
<path d="M38.9466 119.876L20.6815 118.025L20.6564 117.993L7.32603 101.194C6.44875 99.7158 6.11844 97.9247 6.40274 96.1873C6.68703 94.45 7.56443 92.8979 8.85527 91.8489C9.5695 91.2699 10.3871 90.8639 11.2543 90.6575C12.1215 90.4511 13.0186 90.4491 13.8866 90.6515C14.7546 90.8539 15.5737 91.2562 16.2901 91.8319C17.0065 92.4076 17.6039 93.1437 18.043 93.9917L26.2535 109.848L39.1478 115.546L38.9466 119.876Z" fill="#3F3D56"/>
<path d="M281.651 200.001H0.347782C0.255451 200 0.166993 199.947 0.1018 199.854C0.0366072 199.76 0 199.633 0 199.5C0 199.368 0.0366072 199.241 0.1018 199.147C0.166993 199.053 0.255451 199 0.347782 199H281.651C281.744 199 281.832 199.053 281.898 199.147C281.963 199.24 282 199.368 282 199.5C282 199.633 281.963 199.76 281.898 199.854C281.832 199.948 281.744 200.001 281.651 200.001Z" fill="#CCCCCC"/>
</g>
<defs>
<clipPath id="clip0_2_192">
<rect width="282" height="200" fill="white"/>
</clipPath>
</defs>
</svg>
