<svg width="200" height="48" viewBox="0 0 200 48" fill="none" xmlns="http://www.w3.org/2000/svg">
<path d="M53.0311 35.1033V14.6021H55.1961L66.6589 30.5158V14.6021H69.1297V35.1033H66.9179L55.5019 19.1746V35.1033H53.0311Z" fill="white"/>
<path d="M100.508 30.2407V33.5475C99.4886 34.1729 98.4485 34.6481 97.3914 34.9733C96.3343 35.2985 95.2858 35.4636 94.2498 35.4636C93.2521 35.4636 92.3012 35.3084 91.397 35.0033C90.4926 34.6931 89.6393 34.2379 88.8326 33.6325C87.5421 32.637 86.5358 31.3613 85.8184 29.8155C85.1009 28.2646 84.74 26.5837 84.74 24.7628C84.74 23.387 84.9777 22.0512 85.4491 20.7556C85.9202 19.4648 86.5953 18.3293 87.4657 17.3636C88.3953 16.3281 89.4354 15.5527 90.586 15.0424C91.7408 14.5271 93.0186 14.272 94.4196 14.272C95.4003 14.272 96.3683 14.4021 97.332 14.6672C98.2915 14.9324 99.3019 15.3475 100.355 15.9178V19.1046C99.2511 18.3992 98.2151 17.879 97.2428 17.5387C96.2749 17.2036 95.3324 17.0335 94.4196 17.0335C92.3861 17.0335 90.7091 17.7789 89.3803 19.2697C88.0515 20.7605 87.3892 22.6265 87.3892 24.8728C87.3892 27.094 88.043 28.945 89.3506 30.4358C90.6581 31.9266 92.2969 32.672 94.271 32.672C95.2858 32.672 96.3088 32.472 97.3448 32.0717C98.3849 31.6715 99.4378 31.0612 100.508 30.2407Z" fill="white"/>
<path d="M103.255 14.6021H105.726V26.3685C105.726 27.6792 105.785 28.6097 105.904 29.1551C106.027 29.7004 106.227 30.1756 106.511 30.5759C107.025 31.2912 107.632 31.8215 108.336 32.1767C109.041 32.5269 109.844 32.7019 110.739 32.7019C112.247 32.7019 113.461 32.2418 114.382 31.3263C115.303 30.4058 115.762 29.1951 115.762 27.6892V14.6021H118.233V27.7793C118.233 30.0605 117.541 31.9115 116.157 33.3323C114.773 34.7531 112.968 35.4635 110.739 35.4635C109.419 35.4635 108.23 35.1884 107.169 34.6381C106.108 34.0827 105.216 33.2773 104.486 32.2118C104.036 31.5764 103.722 30.871 103.535 30.0906C103.348 29.3101 103.255 28.1095 103.255 26.4886V14.6021Z" fill="white"/>
<path d="M124.346 26.0684V32.4319H127.658C128.867 32.4319 129.751 32.1817 130.307 31.6765C130.867 31.1712 131.147 30.3858 131.147 29.3101C131.147 28.1946 130.833 27.3741 130.209 26.8538C129.585 26.3285 128.6 26.0684 127.258 26.0684H124.346ZM121.875 35.1033V14.6021H126.97C128.706 14.6021 130.043 15.0674 130.982 15.9929C131.924 16.9233 132.395 18.2392 132.395 19.9501C132.395 21.0057 132.183 21.8861 131.763 22.5865C131.338 23.2919 130.693 23.8322 129.823 24.2124C131.088 24.5676 132.069 25.208 132.761 26.1335C133.453 27.0639 133.796 28.1896 133.796 29.5203C133.796 31.2212 133.27 32.5769 132.213 33.5875C131.156 34.598 129.725 35.1033 127.916 35.1033H121.875ZM124.346 23.397H126.027C127.297 23.397 128.239 23.1268 128.851 22.5915C129.466 22.0562 129.772 21.2358 129.772 20.1302C129.772 19.1247 129.53 18.3892 129.046 17.934C128.558 17.4737 127.785 17.2435 126.723 17.2435H124.346V23.397Z" fill="white"/>
<path d="M139.944 26.4286H145.365L142.618 19.0445L139.944 26.4286ZM134.208 35.1033L141.748 14.6021H143.561L151.198 35.1033H148.626L146.384 29.0701H138.971L136.759 35.1033H134.208Z" fill="white"/>
<path d="M155.355 35.1033V17.2736H148.961V14.6021H164.219V17.2736H157.826V35.1033H155.355Z" fill="white"/>
<path d="M167.96 24.8728C167.96 25.9183 168.125 26.9189 168.456 27.8644C168.788 28.81 169.267 29.6504 169.887 30.3858C170.494 31.1161 171.203 31.6815 172.022 32.0768C172.838 32.472 173.691 32.672 174.578 32.672C175.487 32.672 176.344 32.477 177.147 32.0917C177.945 31.7065 178.662 31.1362 179.291 30.3858C179.91 29.6504 180.39 28.81 180.726 27.8644C181.061 26.9189 181.231 25.9183 181.231 24.8728C181.231 23.8272 181.065 22.8416 180.734 21.9061C180.403 20.9757 179.911 20.1202 179.265 19.3497C178.645 18.5944 177.932 18.024 177.126 17.6288C176.323 17.2336 175.474 17.0335 174.578 17.0335C173.712 17.0335 172.88 17.2336 172.069 17.6338C171.263 18.034 170.532 18.6043 169.887 19.3497C169.267 20.0601 168.788 20.8956 168.456 21.8562C168.125 22.8117 167.96 23.8172 167.96 24.8728ZM165.31 24.7628C165.31 23.397 165.548 22.0663 166.02 20.7805C166.491 19.4898 167.166 18.3492 168.036 17.3636C168.923 16.3581 169.925 15.5928 171.046 15.0625C172.163 14.5372 173.343 14.272 174.578 14.272C175.835 14.272 177.032 14.5372 178.166 15.0724C179.295 15.6027 180.293 16.3681 181.154 17.3636C182.059 18.3992 182.738 19.5549 183.196 20.8206C183.651 22.0912 183.88 23.472 183.88 24.9578C183.88 26.3536 183.647 27.6943 183.175 28.98C182.708 30.2658 182.042 31.3963 181.18 32.3719C180.276 33.3874 179.269 34.1578 178.153 34.6782C177.036 35.2035 175.843 35.4636 174.578 35.4636C173.343 35.4636 172.158 35.1934 171.025 34.6581C169.896 34.1178 168.898 33.3575 168.036 32.3719C167.14 31.3463 166.461 30.1857 166.002 28.9C165.54 27.6093 165.31 26.2285 165.31 24.7628Z" fill="white"/>
<path d="M186.627 35.1033V14.6021H191.721C193.479 14.6021 194.838 15.0924 195.793 16.0679C196.748 17.0435 197.223 18.4292 197.223 20.2152C197.223 21.5659 196.96 22.6515 196.438 23.472C195.912 24.2924 195.088 24.9077 193.954 25.318C194.247 25.5031 194.519 25.7482 194.778 26.0584C195.037 26.3635 195.368 26.8789 195.776 27.6042L200 35.1033H196.99L194.005 29.7254C193.11 28.1045 192.388 27.0689 191.836 26.6237C191.288 26.1735 190.63 25.9484 189.87 25.9484H189.123V35.1033H186.627ZM189.123 23.487H191.186C192.345 23.487 193.211 23.2219 193.789 22.6965C194.362 22.1663 194.651 21.3608 194.651 20.2752C194.651 19.1596 194.379 18.3542 193.831 17.8488C193.284 17.3436 192.401 17.0935 191.186 17.0935H189.123V23.487Z" fill="white"/>
<path d="M48.7891 11.799C50.2716 11.799 51.4734 10.5893 51.4734 9.0972C51.4734 7.60506 50.2716 6.39545 48.7891 6.39545C47.3065 6.39545 46.1047 7.60506 46.1047 9.0972C46.1047 10.5893 47.3065 11.799 48.7891 11.799Z" fill="#FF6583"/>
<path d="M50.0277 14.2784H47.5921V34.8024H50.0277V14.2784Z" fill="white"/>
<path d="M0 34.7727V14.314H2.97163V34.7727H0Z" fill="white"/>
<path d="M13.0996 34.7727V16.9799H5.48853V14.314H23.652V16.9799H16.0409V34.7727H13.0996Z" fill="white"/>
<path d="M27.3224 27.9683C28.805 27.9683 30.0068 26.7587 30.0068 25.2665C30.0068 23.7744 28.805 22.5648 27.3224 22.5648C25.8399 22.5648 24.6381 23.7744 24.6381 25.2665C24.6381 26.7587 25.8399 27.9683 27.3224 27.9683Z" fill="white"/>
<path d="M58.0344 47C70.6551 47 80.8862 36.7025 80.8862 24C80.8862 11.2975 70.6551 1 58.0344 1C45.4137 1 35.1826 11.2975 35.1826 24C35.1826 36.7025 45.4137 47 58.0344 47Z" stroke="white" stroke-miterlimit="22.9256"/>
</svg>
