<svg width="18" height="22" viewBox="0 0 18 22" fill="none" xmlns="http://www.w3.org/2000/svg">
<path d="M9.1656 0.00512865C9.13255 0.00192325 9.09916 0 9.06513 0L8.99673 0.000961622L8.93487 0C8.90116 0 8.86778 0.0016027 8.83505 0.00512865C3.95575 0.125652 0 4.08882 0 8.87866C0 15.0346 6.99251 20.7182 8.39389 21.7949C8.5716 21.9317 8.78596 22 9 22C9.21404 22 9.42807 21.9317 9.60611 21.7949C11.0078 20.7182 18 15.0346 18 8.87866C18 4.08882 14.0452 0.125652 9.1656 0.00512865ZM9 19.796C7.1172 18.2359 1.96364 13.539 1.96364 8.87866C1.96364 5.10493 5.09793 1.98607 8.95058 1.92613C8.96629 1.92613 8.98167 1.92549 8.99738 1.92453H9.00033C9.00098 1.92453 9.00229 1.92453 9.0036 1.92453C9.01898 1.92549 9.03436 1.92613 9.05007 1.92613C12.9024 1.98607 16.037 5.10493 16.037 8.87866C16.0364 13.539 10.8828 18.2359 9 19.796Z" fill="white"/>
<path d="M9.06551 4.45398C6.77329 4.45398 4.91504 6.27401 4.91504 8.5194C4.91504 10.7641 6.77329 12.5842 9.06551 12.5842C11.3577 12.5842 13.216 10.7641 13.216 8.5194C13.2157 6.27369 11.3577 4.45398 9.06551 4.45398ZM9.06551 10.6606C7.85984 10.6606 6.87868 9.69995 6.87868 8.51908C6.87868 7.33789 7.85984 6.3769 9.06551 6.3769C10.2715 6.3769 11.2523 7.33789 11.2523 8.51908C11.252 9.69995 10.2712 10.6606 9.06551 10.6606Z" fill="white"/>
</svg>
